<?xml version="1.0" ?><!DOCTYPE svg  PUBLIC '-//W3C//DTD SVG 1.1//EN'  'http://www.w3.org/Graphics/SVG/1.1/DTD/svg11.dtd'><svg height="512px" style="enable-background:new 0 0 512 512;" version="1.1" viewBox="0 0 512 512" width="512px" xml:space="preserve" xmlns="http://www.w3.org/2000/svg" xmlns:xlink="http://www.w3.org/1999/xlink"><g id="_x35_60_x2C__Check_x2C__filing_x2C__list_x2C__listing_x2C__registration"><g><path d="M364.834,141.156h75.593l-75.593-75.594V141.156z M357.213,60.142h-0.125    H114.945v370.99v12.765h330.872v-295.15h-84.795c-2.105,0-3.81-1.703-3.81-3.811V60.142z M94.715,43.475v370.185v13.569h12.609    V56.361v-0.123l0.032-0.093l0,0v-0.093l0,0v-0.094l0,0l0.062-0.371l0,0c0.372-1.735,1.89-3.036,3.718-3.036H348.29l-9.077-9.047    C257.703,43.505,176.225,43.475,94.715,43.475z M87.125,409.756V39.694v-0.093v-0.093l0,0v-0.124l0,0v-0.093l0,0l0.062-0.371l0,0    c0.372-1.735,1.89-3.036,3.75-3.036l229.626,0.03l-9.915-9.883l-244.466-0.03v383.754H87.125z M172.383,154.415    c-1.642-1.642-3.934-2.664-6.443-2.664s-4.803,1.022-6.445,2.634c-1.641,1.672-2.664,3.965-2.664,6.475    c0,2.416,0.96,4.647,2.509,6.289l0.155,0.155c1.642,1.642,3.936,2.663,6.445,2.663s4.801-1.021,6.443-2.663    c1.643-1.643,2.664-3.935,2.664-6.444S174.026,156.057,172.383,154.415z M165.94,144.129c4.615,0,8.798,1.891,11.803,4.896    c3.037,3.036,4.925,7.219,4.925,11.835c0,4.615-1.888,8.799-4.894,11.835c-3.036,3.005-7.219,4.895-11.834,4.895    c-4.617,0-8.798-1.89-11.835-4.895l-0.248-0.312c-2.85-3.004-4.646-7.063-4.646-11.523c0-4.616,1.89-8.799,4.894-11.804    C157.171,146.02,161.355,144.129,165.94,144.129z M195.062,157.514c-2.107,0-3.812-1.705-3.812-3.811    c0-2.107,1.704-3.811,3.812-3.811h85.041c2.107,0,3.811,1.703,3.811,3.811c0,2.105-1.703,3.811-3.811,3.811H195.062z     M195.062,169.999c-2.107,0-3.812-1.704-3.812-3.812c0-2.075,1.704-3.811,3.812-3.811h145.73c2.107,0,3.812,1.735,3.812,3.811    c0,2.107-1.704,3.812-3.812,3.812H195.062z M172.383,207.051c-1.642-1.643-3.934-2.664-6.443-2.664s-4.803,1.021-6.445,2.664    c-1.641,1.643-2.664,3.935-2.664,6.443c0,2.418,0.96,4.648,2.509,6.289l0.155,0.156c1.642,1.641,3.936,2.664,6.445,2.664    s4.801-1.023,6.443-2.664c1.643-1.643,2.664-3.936,2.664-6.445C175.047,210.985,174.026,208.693,172.383,207.051z M165.94,196.766    c4.615,0,8.798,1.891,11.803,4.895c3.037,3.036,4.925,7.219,4.925,11.834c0,4.617-1.888,8.799-4.894,11.836    c-3.036,3.004-7.219,4.895-11.834,4.895c-4.617,0-8.798-1.891-11.835-4.895l-0.248-0.311c-2.85-2.975-4.646-7.063-4.646-11.525    c0-4.615,1.89-8.798,4.894-11.803C157.171,198.656,161.355,196.766,165.94,196.766z M195.062,210.149    c-2.107,0-3.812-1.704-3.812-3.811s1.704-3.812,3.812-3.812h85.041c2.107,0,3.811,1.705,3.811,3.812s-1.703,3.811-3.811,3.811    H195.062z M195.062,222.635c-2.107,0-3.812-1.704-3.812-3.811c0-2.076,1.704-3.78,3.812-3.78h145.73    c2.107,0,3.812,1.704,3.812,3.78c0,2.106-1.704,3.811-3.812,3.811H195.062z M172.383,259.687    c-1.642-1.642-3.934-2.665-6.443-2.665s-4.803,1.023-6.445,2.665c-1.641,1.642-2.664,3.935-2.664,6.444    c0,2.447,0.96,4.646,2.509,6.289l0.155,0.154c1.642,1.643,3.936,2.665,6.445,2.665s4.801-1.022,6.443-2.665    c1.643-1.641,2.664-3.934,2.664-6.443S174.026,261.328,172.383,259.687z M165.94,249.401c4.615,0,8.798,1.89,11.803,4.895    c3.037,3.036,4.925,7.218,4.925,11.835c0,4.616-1.888,8.799-4.894,11.834c-3.036,3.006-7.219,4.895-11.834,4.895    c-4.617,0-8.798-1.889-11.835-4.895l-0.248-0.279c-2.85-3.004-4.646-7.094-4.646-11.555c0-4.585,1.89-8.768,4.894-11.805    C157.171,251.291,161.355,249.401,165.94,249.401z M195.062,262.785c-2.107,0-3.812-1.704-3.812-3.811    c0-2.107,1.704-3.811,3.812-3.811h85.041c2.107,0,3.811,1.703,3.811,3.811c0,2.106-1.703,3.811-3.811,3.811H195.062z     M195.062,275.27c-2.107,0-3.812-1.703-3.812-3.779c0-2.107,1.704-3.811,3.812-3.811h145.73c2.107,0,3.812,1.703,3.812,3.811    c0,2.076-1.704,3.779-3.812,3.779H195.062z M172.383,312.322c-1.642-1.642-3.934-2.664-6.443-2.664s-4.803,1.022-6.445,2.664    c-1.641,1.643-2.664,3.936-2.664,6.444c0,2.446,0.96,4.646,2.509,6.289l0.155,0.154c1.642,1.643,3.936,2.665,6.445,2.665    s4.801-1.022,6.443-2.665c1.643-1.642,2.664-3.935,2.664-6.443S174.026,313.965,172.383,312.322z M165.94,302.037    c4.615,0,8.798,1.89,11.803,4.895c3.037,3.037,4.925,7.219,4.925,11.835s-1.888,8.798-4.894,11.834    c-3.036,3.006-7.219,4.896-11.834,4.896c-4.617,0-8.798-1.89-11.835-4.896l-0.248-0.278c-2.85-3.005-4.646-7.094-4.646-11.556    c0-4.585,1.89-8.768,4.894-11.804C157.171,303.927,161.355,302.037,165.94,302.037z M195.062,315.42    c-2.107,0-3.812-1.703-3.812-3.811c0-2.075,1.704-3.811,3.812-3.811h85.041c2.107,0,3.811,1.735,3.811,3.811    c0,2.107-1.703,3.811-3.811,3.811H195.062z M195.062,327.938c-2.107,0-3.812-1.736-3.812-3.811c0-2.107,1.704-3.813,3.812-3.813    h145.73c2.107,0,3.812,1.705,3.812,3.813c0,2.074-1.704,3.811-3.812,3.811H195.062z M172.383,364.959    c-1.642-1.643-3.934-2.665-6.443-2.665s-4.803,1.022-6.445,2.665c-1.641,1.641-2.664,3.934-2.664,6.443    c0,2.447,0.96,4.646,2.509,6.289l0.155,0.154c1.642,1.643,3.936,2.664,6.445,2.664s4.801-1.021,6.443-2.664    c1.643-1.642,2.664-3.935,2.664-6.443C175.047,368.893,174.026,366.6,172.383,364.959z M165.94,354.673    c4.615,0,8.798,1.89,11.803,4.896c3.037,3.035,4.925,7.218,4.925,11.834c0,4.615-1.888,8.798-4.894,11.834    c-3.036,3.036-7.219,4.896-11.834,4.896c-4.617,0-8.798-1.859-11.835-4.896l-0.248-0.278c-2.85-3.005-4.646-7.095-4.646-11.556    c0-4.586,1.89-8.768,4.894-11.804C157.171,356.563,161.355,354.673,165.94,354.673z M195.062,368.057    c-2.107,0-3.812-1.704-3.812-3.812c0-2.075,1.704-3.811,3.812-3.811h85.041c2.107,0,3.811,1.735,3.811,3.811    c0,2.107-1.703,3.812-3.811,3.812H195.062z M195.062,380.572c-2.107,0-3.812-1.734-3.812-3.811c0-2.106,1.704-3.811,3.812-3.811    h145.73c2.107,0,3.812,1.704,3.812,3.811c0,2.076-1.704,3.811-3.812,3.811H195.062z M419.67,406.472h-81.635v18.558h81.635    V406.472z M81.424,470.137c-2.106,0-3.81-1.704-3.81-3.811s1.704-3.811,3.81-3.811h260.732c2.107,0,3.811,1.704,3.811,3.811    s-1.703,3.811-3.811,3.811H81.424z M234.096,485.999c-2.105,0-3.811-1.704-3.811-3.811s1.706-3.811,3.811-3.811h180.43    c2.106,0,3.81,1.704,3.81,3.811s-1.703,3.811-3.81,3.811H234.096z M71.14,485.503c-2.076,0-3.811-1.704-3.811-3.811    c0-2.076,1.735-3.811,3.811-3.811h85.505c2.107,0,3.812,1.734,3.812,3.811c0,2.106-1.704,3.811-3.812,3.811H71.14z     M334.227,398.851h89.222c2.107,0,3.812,1.704,3.812,3.811v26.179c0,2.075-1.704,3.779-3.812,3.779h-89.222    c-2.076,0-3.78-1.704-3.78-3.779v-26.179C330.446,400.555,332.15,398.851,334.227,398.851z" style="fill-rule:evenodd;clip-rule:evenodd;"/></g></g><g id="Layer_1"/></svg>